<svg xmlns="http://www.w3.org/2000/svg" width="1740" height="869" style="cursor: move;"><g><path class="link" marker-end="" d="M710,324.5, 890,324.5" style="stroke-width: 0.5; stroke-opacity: 1; stroke: rgb(69, 69, 255);"></path><path class="link" marker-end="" d="M710,324.5, 890,364.5" style="stroke-width: 0.5; stroke-opacity: 1; stroke: rgb(83, 83, 255);"></path><path class="link" marker-end="" d="M710,324.5, 890,404.5" style="stroke-width: 0.5; stroke-opacity: 1; stroke: rgb(202, 202, 255);"></path><path class="link" marker-end="" d="M710,324.5, 890,444.5" style="stroke-width: 0.5; stroke-opacity: 1; stroke: rgb(255, 216, 216);"></path><path class="link" marker-end="" d="M710,324.5, 890,484.5" style="stroke-width: 0.5; stroke-opacity: 1; stroke: rgb(255, 158, 158);"></path><path class="link" marker-end="" d="M710,324.5, 890,524.5" style="stroke-width: 0.5; stroke-opacity: 1; stroke: rgb(112, 112, 255);"></path><path class="link" marker-end="" d="M710,364.5, 890,324.5" style="stroke-width: 0.5; stroke-opacity: 1; stroke: rgb(65, 65, 255);"></path><path class="link" marker-end="" d="M710,364.5, 890,364.5" style="stroke-width: 0.5; stroke-opacity: 1; stroke: rgb(255, 5, 5);"></path><path class="link" marker-end="" d="M710,364.5, 890,404.5" style="stroke-width: 0.5; stroke-opacity: 1; stroke: rgb(215, 215, 255);"></path><path class="link" marker-end="" d="M710,364.5, 890,444.5" style="stroke-width: 0.5; stroke-opacity: 1; stroke: rgb(190, 190, 255);"></path><path class="link" marker-end="" d="M710,364.5, 890,484.5" style="stroke-width: 0.5; stroke-opacity: 1; stroke: rgb(84, 84, 255);"></path><path class="link" marker-end="" d="M710,364.5, 890,524.5" style="stroke-width: 0.5; stroke-opacity: 1; stroke: rgb(222, 222, 255);"></path><path class="link" marker-end="" d="M710,404.5, 890,324.5" style="stroke-width: 0.5; stroke-opacity: 1; stroke: rgb(6, 6, 255);"></path><path class="link" marker-end="" d="M710,404.5, 890,364.5" style="stroke-width: 0.5; stroke-opacity: 1; stroke: rgb(255, 72, 72);"></path><path class="link" marker-end="" d="M710,404.5, 890,404.5" style="stroke-width: 0.5; stroke-opacity: 1; stroke: rgb(33, 33, 255);"></path><path class="link" marker-end="" d="M710,404.5, 890,444.5" style="stroke-width: 0.5; stroke-opacity: 1; stroke: rgb(255, 205, 205);"></path><path class="link" marker-end="" d="M710,404.5, 890,484.5" style="stroke-width: 0.5; stroke-opacity: 1; stroke: rgb(195, 195, 255);"></path><path class="link" marker-end="" d="M710,404.5, 890,524.5" style="stroke-width: 0.5; stroke-opacity: 1; stroke: rgb(133, 133, 255);"></path><path class="link" marker-end="" d="M710,444.5, 890,324.5" style="stroke-width: 0.5; stroke-opacity: 1; stroke: rgb(247, 247, 255);"></path><path class="link" marker-end="" d="M710,444.5, 890,364.5" style="stroke-width: 0.5; stroke-opacity: 1; stroke: rgb(19, 19, 255);"></path><path class="link" marker-end="" d="M710,444.5, 890,404.5" style="stroke-width: 0.5; stroke-opacity: 1; stroke: rgb(241, 241, 255);"></path><path class="link" marker-end="" d="M710,444.5, 890,444.5" style="stroke-width: 0.5; stroke-opacity: 1; stroke: rgb(255, 179, 179);"></path><path class="link" marker-end="" d="M710,444.5, 890,484.5" style="stroke-width: 0.5; stroke-opacity: 1; stroke: rgb(74, 74, 255);"></path><path class="link" marker-end="" d="M710,444.5, 890,524.5" style="stroke-width: 0.5; stroke-opacity: 1; stroke: rgb(73, 73, 255);"></path><path class="link" marker-end="" d="M710,484.5, 890,324.5" style="stroke-width: 0.5; stroke-opacity: 1; stroke: rgb(255, 190, 190);"></path><path class="link" marker-end="" d="M710,484.5, 890,364.5" style="stroke-width: 0.5; stroke-opacity: 1; stroke: rgb(165, 165, 255);"></path><path class="link" marker-end="" d="M710,484.5, 890,404.5" style="stroke-width: 0.5; stroke-opacity: 1; stroke: rgb(255, 217, 217);"></path><path class="link" marker-end="" d="M710,484.5, 890,444.5" style="stroke-width: 0.5; stroke-opacity: 1; stroke: rgb(104, 104, 255);"></path><path class="link" marker-end="" d="M710,484.5, 890,484.5" style="stroke-width: 0.5; stroke-opacity: 1; stroke: rgb(17, 17, 255);"></path><path class="link" marker-end="" d="M710,484.5, 890,524.5" style="stroke-width: 0.5; stroke-opacity: 1; stroke: rgb(34, 34, 255);"></path><path class="link" marker-end="" d="M710,524.5, 890,324.5" style="stroke-width: 0.5; stroke-opacity: 1; stroke: rgb(255, 242, 242);"></path><path class="link" marker-end="" d="M710,524.5, 890,364.5" style="stroke-width: 0.5; stroke-opacity: 1; stroke: rgb(92, 92, 255);"></path><path class="link" marker-end="" d="M710,524.5, 890,404.5" style="stroke-width: 0.5; stroke-opacity: 1; stroke: rgb(255, 204, 204);"></path><path class="link" marker-end="" d="M710,524.5, 890,444.5" style="stroke-width: 0.5; stroke-opacity: 1; stroke: rgb(193, 193, 255);"></path><path class="link" marker-end="" d="M710,524.5, 890,484.5" style="stroke-width: 0.5; stroke-opacity: 1; stroke: rgb(170, 170, 255);"></path><path class="link" marker-end="" d="M710,524.5, 890,524.5" style="stroke-width: 0.5; stroke-opacity: 1; stroke: rgb(59, 59, 255);"></path><path class="link" marker-end="" d="M890,324.5, 1070,424.5" style="stroke-width: 0.5; stroke-opacity: 1; stroke: rgb(32, 32, 255);"></path><path class="link" marker-end="" d="M890,364.5, 1070,424.5" style="stroke-width: 0.5; stroke-opacity: 1; stroke: rgb(255, 196, 196);"></path><path class="link" marker-end="" d="M890,404.5, 1070,424.5" style="stroke-width: 0.5; stroke-opacity: 1; stroke: rgb(255, 221, 221);"></path><path class="link" marker-end="" d="M890,444.5, 1070,424.5" style="stroke-width: 0.5; stroke-opacity: 1; stroke: rgb(142, 142, 255);"></path><path class="link" marker-end="" d="M890,484.5, 1070,424.5" style="stroke-width: 0.5; stroke-opacity: 1; stroke: rgb(255, 18, 18);"></path><path class="link" marker-end="" d="M890,524.5, 1070,424.5" style="stroke-width: 0.5; stroke-opacity: 1; stroke: rgb(255, 147, 147);"></path><circle r="11" class="node" id="0_0" cx="710" cy="324.5" style="fill: rgb(149, 114, 254); stroke: rgb(51, 51, 51);"></circle><circle r="11" class="node" id="0_1" cx="710" cy="364.5" style="fill: rgb(149, 114, 254); stroke: rgb(51, 51, 51);"></circle><circle r="11" class="node" id="0_2" cx="710" cy="404.5" style="fill: rgb(149, 114, 254); stroke: rgb(51, 51, 51);"></circle><circle r="11" class="node" id="0_3" cx="710" cy="444.5" style="fill: rgb(149, 114, 254); stroke: rgb(51, 51, 51);"></circle><circle r="11" class="node" id="0_4" cx="710" cy="484.5" style="fill: rgb(149, 114, 254); stroke: rgb(51, 51, 51);"></circle><circle r="11" class="node" id="0_5" cx="710" cy="524.5" style="fill: rgb(149, 114, 254); stroke: rgb(51, 51, 51);"></circle><circle r="11" class="node" id="1_0" cx="890" cy="324.5" style="fill: rgb(149, 114, 254); stroke: rgb(51, 51, 51);"></circle><circle r="11" class="node" id="1_1" cx="890" cy="364.5" style="fill: rgb(149, 114, 254); stroke: rgb(51, 51, 51);"></circle><circle r="11" class="node" id="1_2" cx="890" cy="404.5" style="fill: rgb(149, 114, 254); stroke: rgb(51, 51, 51);"></circle><circle r="11" class="node" id="1_3" cx="890" cy="444.5" style="fill: rgb(149, 114, 254); stroke: rgb(51, 51, 51);"></circle><circle r="11" class="node" id="1_4" cx="890" cy="484.5" style="fill: rgb(149, 114, 254); stroke: rgb(51, 51, 51);"></circle><circle r="11" class="node" id="1_5" cx="890" cy="524.5" style="fill: rgb(149, 114, 254); stroke: rgb(51, 51, 51);"></circle><circle r="11" class="node" id="2_0" cx="1070" cy="424.5" style="fill: rgb(149, 114, 254); stroke: rgb(51, 51, 51);"></circle><text class="text" dy=".35em" x="675" y="564.5" style="font-size: 12px;">Input Layer ∈ ℝ⁶</text><text class="text" dy=".35em" x="855" y="564.5" style="font-size: 12px;">Hidden Layer ∈ ℝ⁶</text><text class="text" dy=".35em" x="1035" y="564.5" style="font-size: 12px;">Output Layer ∈ ℝ¹</text></g><defs><marker id="arrow" viewBox="0 -5 10 10" markerWidth="7" markerHeight="7" orient="auto" refX="42.8"><path d="M0,-5L10,0L0,5" style="stroke: rgb(80, 80, 80); fill: none;"></path></marker></defs></svg>