<svg xmlns="http://www.w3.org/2000/svg" width="1740" height="820" style="cursor: move;"><g><path class="link" marker-end="" d="M710,300, 890,300" style="stroke-width: 0.5; stroke-opacity: 1; stroke: rgb(212, 212, 255);"></path><path class="link" marker-end="" d="M710,300, 890,340" style="stroke-width: 0.5; stroke-opacity: 1; stroke: rgb(92, 92, 255);"></path><path class="link" marker-end="" d="M710,300, 890,380" style="stroke-width: 0.5; stroke-opacity: 1; stroke: rgb(109, 109, 255);"></path><path class="link" marker-end="" d="M710,300, 890,420" style="stroke-width: 0.5; stroke-opacity: 1; stroke: rgb(255, 94, 94);"></path><path class="link" marker-end="" d="M710,300, 890,460" style="stroke-width: 0.5; stroke-opacity: 1; stroke: rgb(159, 159, 255);"></path><path class="link" marker-end="" d="M710,300, 890,500" style="stroke-width: 0.5; stroke-opacity: 1; stroke: rgb(182, 182, 255);"></path><path class="link" marker-end="" d="M710,340, 890,300" style="stroke-width: 0.5; stroke-opacity: 1; stroke: rgb(255, 18, 18);"></path><path class="link" marker-end="" d="M710,340, 890,340" style="stroke-width: 0.5; stroke-opacity: 1; stroke: rgb(24, 24, 255);"></path><path class="link" marker-end="" d="M710,340, 890,380" style="stroke-width: 0.5; stroke-opacity: 1; stroke: rgb(130, 130, 255);"></path><path class="link" marker-end="" d="M710,340, 890,420" style="stroke-width: 0.5; stroke-opacity: 1; stroke: rgb(255, 198, 198);"></path><path class="link" marker-end="" d="M710,340, 890,460" style="stroke-width: 0.5; stroke-opacity: 1; stroke: rgb(137, 137, 255);"></path><path class="link" marker-end="" d="M710,340, 890,500" style="stroke-width: 0.5; stroke-opacity: 1; stroke: rgb(255, 79, 79);"></path><path class="link" marker-end="" d="M710,380, 890,300" style="stroke-width: 0.5; stroke-opacity: 1; stroke: rgb(182, 182, 255);"></path><path class="link" marker-end="" d="M710,380, 890,340" style="stroke-width: 0.5; stroke-opacity: 1; stroke: rgb(200, 200, 255);"></path><path class="link" marker-end="" d="M710,380, 890,380" style="stroke-width: 0.5; stroke-opacity: 1; stroke: rgb(255, 50, 50);"></path><path class="link" marker-end="" d="M710,380, 890,420" style="stroke-width: 0.5; stroke-opacity: 1; stroke: rgb(255, 14, 14);"></path><path class="link" marker-end="" d="M710,380, 890,460" style="stroke-width: 0.5; stroke-opacity: 1; stroke: rgb(12, 12, 255);"></path><path class="link" marker-end="" d="M710,380, 890,500" style="stroke-width: 0.5; stroke-opacity: 1; stroke: rgb(255, 13, 13);"></path><path class="link" marker-end="" d="M710,420, 890,300" style="stroke-width: 0.5; stroke-opacity: 1; stroke: rgb(255, 164, 164);"></path><path class="link" marker-end="" d="M710,420, 890,340" style="stroke-width: 0.5; stroke-opacity: 1; stroke: rgb(102, 102, 255);"></path><path class="link" marker-end="" d="M710,420, 890,380" style="stroke-width: 0.5; stroke-opacity: 1; stroke: rgb(97, 97, 255);"></path><path class="link" marker-end="" d="M710,420, 890,420" style="stroke-width: 0.5; stroke-opacity: 1; stroke: rgb(13, 13, 255);"></path><path class="link" marker-end="" d="M710,420, 890,460" style="stroke-width: 0.5; stroke-opacity: 1; stroke: rgb(255, 61, 61);"></path><path class="link" marker-end="" d="M710,420, 890,500" style="stroke-width: 0.5; stroke-opacity: 1; stroke: rgb(255, 247, 247);"></path><path class="link" marker-end="" d="M710,460, 890,300" style="stroke-width: 0.5; stroke-opacity: 1; stroke: rgb(255, 23, 23);"></path><path class="link" marker-end="" d="M710,460, 890,340" style="stroke-width: 0.5; stroke-opacity: 1; stroke: rgb(225, 225, 255);"></path><path class="link" marker-end="" d="M710,460, 890,380" style="stroke-width: 0.5; stroke-opacity: 1; stroke: rgb(106, 106, 255);"></path><path class="link" marker-end="" d="M710,460, 890,420" style="stroke-width: 0.5; stroke-opacity: 1; stroke: rgb(223, 223, 255);"></path><path class="link" marker-end="" d="M710,460, 890,460" style="stroke-width: 0.5; stroke-opacity: 1; stroke: rgb(166, 166, 255);"></path><path class="link" marker-end="" d="M710,460, 890,500" style="stroke-width: 0.5; stroke-opacity: 1; stroke: rgb(52, 52, 255);"></path><path class="link" marker-end="" d="M710,500, 890,300" style="stroke-width: 0.5; stroke-opacity: 1; stroke: rgb(17, 17, 255);"></path><path class="link" marker-end="" d="M710,500, 890,340" style="stroke-width: 0.5; stroke-opacity: 1; stroke: rgb(255, 211, 211);"></path><path class="link" marker-end="" d="M710,500, 890,380" style="stroke-width: 0.5; stroke-opacity: 1; stroke: rgb(255, 232, 232);"></path><path class="link" marker-end="" d="M710,500, 890,420" style="stroke-width: 0.5; stroke-opacity: 1; stroke: rgb(255, 112, 112);"></path><path class="link" marker-end="" d="M710,500, 890,460" style="stroke-width: 0.5; stroke-opacity: 1; stroke: rgb(35, 35, 255);"></path><path class="link" marker-end="" d="M710,500, 890,500" style="stroke-width: 0.5; stroke-opacity: 1; stroke: rgb(255, 228, 228);"></path><path class="link" marker-end="" d="M890,300, 1070,340" style="stroke-width: 0.5; stroke-opacity: 1; stroke: rgb(255, 53, 53);"></path><path class="link" marker-end="" d="M890,340, 1070,340" style="stroke-width: 0.5; stroke-opacity: 1; stroke: rgb(255, 153, 153);"></path><path class="link" marker-end="" d="M890,380, 1070,340" style="stroke-width: 0.5; stroke-opacity: 1; stroke: rgb(209, 209, 255);"></path><path class="link" marker-end="" d="M890,420, 1070,340" style="stroke-width: 0.5; stroke-opacity: 1; stroke: rgb(76, 76, 255);"></path><path class="link" marker-end="" d="M890,460, 1070,340" style="stroke-width: 0.5; stroke-opacity: 1; stroke: rgb(255, 8, 8);"></path><path class="link" marker-end="" d="M890,500, 1070,340" style="stroke-width: 0.5; stroke-opacity: 1; stroke: rgb(245, 245, 255);"></path><path class="link" marker-end="" d="M890,300, 1070,380" style="stroke-width: 0.5; stroke-opacity: 1; stroke: rgb(18, 18, 255);"></path><path class="link" marker-end="" d="M890,340, 1070,380" style="stroke-width: 0.5; stroke-opacity: 1; stroke: rgb(203, 203, 255);"></path><path class="link" marker-end="" d="M890,380, 1070,380" style="stroke-width: 0.5; stroke-opacity: 1; stroke: rgb(187, 187, 255);"></path><path class="link" marker-end="" d="M890,420, 1070,380" style="stroke-width: 0.5; stroke-opacity: 1; stroke: rgb(238, 238, 255);"></path><path class="link" marker-end="" d="M890,460, 1070,380" style="stroke-width: 0.5; stroke-opacity: 1; stroke: rgb(114, 114, 255);"></path><path class="link" marker-end="" d="M890,500, 1070,380" style="stroke-width: 0.5; stroke-opacity: 1; stroke: rgb(255, 229, 229);"></path><path class="link" marker-end="" d="M890,300, 1070,420" style="stroke-width: 0.5; stroke-opacity: 1; stroke: rgb(15, 15, 255);"></path><path class="link" marker-end="" d="M890,300, 1070,460" style="stroke-width: 0.5; stroke-opacity: 1; stroke: rgb(255, 83, 83);"></path><path class="link" marker-end="" d="M890,340, 1070,420" style="stroke-width: 0.5; stroke-opacity: 1; stroke: rgb(127, 127, 255);"></path><path class="link" marker-end="" d="M890,340, 1070,460" style="stroke-width: 0.5; stroke-opacity: 1; stroke: rgb(53, 53, 255);"></path><path class="link" marker-end="" d="M890,380, 1070,420" style="stroke-width: 0.5; stroke-opacity: 1; stroke: rgb(124, 124, 255);"></path><path class="link" marker-end="" d="M890,380, 1070,460" style="stroke-width: 0.5; stroke-opacity: 1; stroke: rgb(255, 96, 96);"></path><path class="link" marker-end="" d="M890,420, 1070,420" style="stroke-width: 0.5; stroke-opacity: 1; stroke: rgb(255, 118, 118);"></path><path class="link" marker-end="" d="M890,420, 1070,460" style="stroke-width: 0.5; stroke-opacity: 1; stroke: rgb(255, 10, 10);"></path><path class="link" marker-end="" d="M890,460, 1070,420" style="stroke-width: 0.5; stroke-opacity: 1; stroke: rgb(255, 182, 182);"></path><path class="link" marker-end="" d="M890,460, 1070,460" style="stroke-width: 0.5; stroke-opacity: 1; stroke: rgb(220, 220, 255);"></path><path class="link" marker-end="" d="M890,500, 1070,420" style="stroke-width: 0.5; stroke-opacity: 1; stroke: rgb(255, 12, 12);"></path><path class="link" marker-end="" d="M890,500, 1070,460" style="stroke-width: 0.5; stroke-opacity: 1; stroke: rgb(255, 48, 48);"></path><circle r="10" class="node" id="0_0" cx="710" cy="300" style="fill: rgb(251, 66, 135); stroke: rgb(51, 51, 51);"></circle><circle r="10" class="node" id="0_1" cx="710" cy="340" style="fill: rgb(251, 66, 135); stroke: rgb(51, 51, 51);"></circle><circle r="10" class="node" id="0_2" cx="710" cy="380" style="fill: rgb(251, 66, 135); stroke: rgb(51, 51, 51);"></circle><circle r="10" class="node" id="0_3" cx="710" cy="420" style="fill: rgb(251, 66, 135); stroke: rgb(51, 51, 51);"></circle><circle r="10" class="node" id="0_4" cx="710" cy="460" style="fill: rgb(251, 66, 135); stroke: rgb(51, 51, 51);"></circle><circle r="10" class="node" id="0_5" cx="710" cy="500" style="fill: rgb(251, 66, 135); stroke: rgb(51, 51, 51);"></circle><circle r="10" class="node" id="1_0" cx="890" cy="300" style="fill: rgb(251, 66, 135); stroke: rgb(51, 51, 51);"></circle><circle r="10" class="node" id="1_1" cx="890" cy="340" style="fill: rgb(251, 66, 135); stroke: rgb(51, 51, 51);"></circle><circle r="10" class="node" id="1_2" cx="890" cy="380" style="fill: rgb(251, 66, 135); stroke: rgb(51, 51, 51);"></circle><circle r="10" class="node" id="1_3" cx="890" cy="420" style="fill: rgb(251, 66, 135); stroke: rgb(51, 51, 51);"></circle><circle r="10" class="node" id="1_4" cx="890" cy="460" style="fill: rgb(251, 66, 135); stroke: rgb(51, 51, 51);"></circle><circle r="10" class="node" id="1_5" cx="890" cy="500" style="fill: rgb(251, 66, 135); stroke: rgb(51, 51, 51);"></circle><circle r="10" class="node" id="2_0" cx="1070" cy="340" style="fill: rgb(251, 66, 135); stroke: rgb(51, 51, 51);"></circle><text class="text" dy=".35em" x="675" y="540" style="font-size: 12px;">Input Layer ∈ ℝ⁶</text><text class="text" dy=".35em" x="855" y="540" style="font-size: 12px;">Hidden Layer ∈ ℝ⁶</text><text class="text" dy=".35em" x="1035" y="540" style="font-size: 12px;">Output Layer ∈ ℝ⁴</text><circle r="10" class="node" id="2_1" cx="1070" cy="380" style="fill: rgb(251, 66, 135); stroke: rgb(51, 51, 51);"></circle><circle r="10" class="node" id="2_2" cx="1070" cy="420" style="fill: rgb(251, 66, 135); stroke: rgb(51, 51, 51);"></circle><circle r="10" class="node" id="2_3" cx="1070" cy="460" style="fill: rgb(251, 66, 135); stroke: rgb(51, 51, 51);"></circle></g><defs><marker id="arrow" viewBox="0 -5 10 10" markerWidth="7" markerHeight="7" orient="auto" refX="40"><path d="M0,-5L10,0L0,5" style="stroke: rgb(80, 80, 80); fill: none;"></path></marker></defs></svg>